<?xml version="1.0" encoding="UTF-8" standalone="no"?>
<!-- Created with Inkscape (http://www.inkscape.org/) -->

<svg
   xmlns:dc="http://purl.org/dc/elements/1.1/"
   xmlns:cc="http://creativecommons.org/ns#"
   xmlns:rdf="http://www.w3.org/1999/02/22-rdf-syntax-ns#"
   xmlns:svg="http://www.w3.org/2000/svg"
   xmlns="http://www.w3.org/2000/svg"
   xmlns:sodipodi="http://sodipodi.sourceforge.net/DTD/sodipodi-0.dtd"
   xmlns:inkscape="http://www.inkscape.org/namespaces/inkscape"
   width="156.37933mm"
   height="43.349331mm"
   viewBox="0 0 156.37933 43.349331"
   version="1.1"
   id="svg8"
   inkscape:version="0.92.4 (5da689c313, 2019-01-14)"
   sodipodi:docname="inkscape.svg">
  <defs
     id="defs2" />
  <sodipodi:namedview
     id="base"
     pagecolor="#ffffff"
     bordercolor="#666666"
     borderopacity="1.0"
     inkscape:pageopacity="0.0"
     inkscape:pageshadow="2"
     inkscape:zoom="3.959798"
     inkscape:cx="175.22039"
     inkscape:cy="205.85687"
     inkscape:document-units="mm"
     inkscape:current-layer="layer2"
     showgrid="false"
     inkscape:window-width="3840"
     inkscape:window-height="2097"
     inkscape:window-x="-8"
     inkscape:window-y="-8"
     inkscape:window-maximized="1" />
  <metadata
     id="metadata5">
    <rdf:RDF>
      <cc:Work
         rdf:about="">
        <dc:format>image/svg+xml</dc:format>
        <dc:type
           rdf:resource="http://purl.org/dc/dcmitype/StillImage" />
        <dc:title></dc:title>
      </cc:Work>
    </rdf:RDF>
  </metadata>
  <g
     inkscape:groupmode="layer"
     id="layer2"
     inkscape:label="diskstack">
    <g
       id="g4550"
       transform="matrix(0.08477668,0,0,0.08478741,105.36976,0.03570811)">
      <path
         id="path4530"
         d="m 436.798,301.563 c 7.906,0 14.328,-6.453 14.328,-14.375 0,-7.906 -6.422,-14.345 -14.328,-14.345 -7.906,0 -14.344,6.438 -14.344,14.345 0,7.92 6.438,14.375 14.344,14.375 z"
         inkscape:connector-curvature="0"
         style="fill:#337ab7" />
      <path
         id="path4532"
         d="m 73.329,304.125 20.969,-20.97 c 3.547,-3.562 3.547,-9.344 0,-12.891 -1.719,-1.703 -4.008,-2.641 -6.445,-2.641 -2.43,0 -4.711,0.938 -6.43,2.641 l -20.977,20.984 c -1.727,1.719 -2.68,4.016 -2.68,6.438 0,2.438 0.953,4.719 2.672,6.438 3.469,3.47 9.454,3.439 12.891,10e-4 z"
         inkscape:connector-curvature="0"
         style="fill:#337ab7" />
      <path
         id="path4534"
         d="m 144.946,304.125 20.969,-20.97 c 3.539,-3.562 3.539,-9.344 0,-12.891 -1.719,-1.703 -4.016,-2.641 -6.445,-2.641 -2.429,0 -4.719,0.938 -6.438,2.641 l -20.969,20.984 c -1.727,1.719 -2.68,4.016 -2.68,6.438 0,2.438 0.953,4.719 2.672,6.438 3.462,3.47 9.454,3.439 12.891,10e-4 z"
         inkscape:connector-curvature="0"
         style="fill:#337ab7" />
      <path
         id="path4536"
         d="m 436.798,420.313 c 7.906,0 14.328,-6.438 14.328,-14.345 0,-7.905 -6.422,-14.344 -14.328,-14.344 -7.906,0 -14.344,6.438 -14.344,14.344 0,7.907 6.438,14.345 14.344,14.345 z"
         inkscape:connector-curvature="0"
         style="fill:#337ab7" />
      <path
         id="path4538"
         d="m 73.321,422.891 20.977,-20.983 c 3.547,-3.531 3.547,-9.312 -0.008,-12.875 -1.711,-1.719 -4,-2.656 -6.438,-2.656 -2.43,0 -4.711,0.938 -6.43,2.656 l -20.977,20.983 c -1.727,1.734 -2.68,4.017 -2.68,6.438 0,2.421 0.953,4.703 2.672,6.422 3.47,3.499 9.447,3.437 12.884,0.015 z"
         inkscape:connector-curvature="0"
         style="fill:#337ab7" />
      <path
         id="path4540"
         d="m 144.939,422.891 20.977,-20.983 c 3.539,-3.531 3.539,-9.312 -0.008,-12.875 -1.711,-1.719 -4.008,-2.656 -6.438,-2.656 -2.43,0 -4.719,0.938 -6.438,2.656 l -20.969,20.983 c -1.727,1.734 -2.68,4.017 -2.68,6.438 0,2.421 0.953,4.703 2.672,6.422 3.462,3.499 9.446,3.437 12.884,0.015 z"
         inkscape:connector-curvature="0"
         style="fill:#337ab7" />
      <path
         id="path4542"
         d="m 438.329,181.234 c 7.906,0 14.344,-6.438 14.344,-14.344 0,-7.906 -6.438,-14.344 -14.344,-14.344 -7.906,0 -14.328,6.438 -14.328,14.344 0,7.906 6.422,14.344 14.328,14.344 z"
         inkscape:connector-curvature="0"
         style="fill:#337ab7" />
      <path
         id="path4544"
         d="m 74.853,183.844 20.977,-21 c 1.727,-1.719 2.68,-4 2.68,-6.438 0,-2.422 -0.953,-4.703 -2.672,-6.406 -1.727,-1.75 -4.008,-2.688 -6.438,-2.688 -2.438,0 -4.719,0.953 -6.445,2.656 l -20.977,20.984 c -3.539,3.531 -3.539,9.328 0.008,12.891 3.421,3.407 9.437,3.407 12.867,0.001 z"
         inkscape:connector-curvature="0"
         style="fill:#337ab7" />
      <path
         id="path4546"
         d="m 146.478,183.828 20.969,-20.984 c 1.727,-1.719 2.672,-4 2.672,-6.438 0,-2.422 -0.945,-4.703 -2.664,-6.406 -1.734,-1.75 -4.008,-2.688 -6.438,-2.688 -2.43,0 -4.719,0.938 -6.445,2.656 l -20.977,20.984 c -3.555,3.547 -3.547,9.328 0.008,12.891 3.421,3.407 9.421,3.438 12.875,-0.015 z"
         inkscape:connector-curvature="0"
         style="fill:#337ab7" />
      <path
         id="path4548"
         d="M 505.532,106.188 444.937,42.313 c -1.858,-2.062 -4.327,-3.188 -6.905,-3.188 H 73.985 c -2.578,0 -5.055,1.125 -6.789,3.062 l -60.727,64 C 2.297,110.718 0,116.375 0,122.406 v 326.5 c 0,13.219 10.727,23.969 23.922,23.969 h 464.141 c 12.406,0 22.875,-9.688 23.859,-22.047 L 512,449.811 V 122.406 c 10e-4,-6.109 -2.327,-11.781 -6.468,-16.218 z M 38.774,98.438 77.899,57.344 H 434.11 L 473.298,98.438 38.712,98.453 Z M 493.798,454.625 H 18.212 L 18.189,354.219 h 475.609 z m 0,-118.642 H 18.189 V 235.328 h 475.609 z m 0,-118.858 H 18.212 L 18.189,116.687 h 475.609 z"
         inkscape:connector-curvature="0"
         style="fill:#337ab7" />
    </g>
  </g>
  <g
     inkscape:groupmode="layer"
     id="layer3"
     inkscape:label="text">
    <text
       xml:space="preserve"
       style="font-style:normal;font-weight:normal;font-size:20.9533329px;line-height:1.25;font-family:sans-serif;letter-spacing:0px;word-spacing:0px;fill:#337ab7;fill-opacity:1;stroke:none;stroke-width:0.52383327"
       x="7.1319399"
       y="28.837452"
       id="text4574"
       transform="scale(0.99784118,1.0021635)"><tspan
         sodipodi:role="line"
         id="tspan4572"
         x="7.1319399"
         y="28.837452"
         style="font-style:normal;font-variant:normal;font-weight:normal;font-stretch:normal;font-family:'Baron Neue';-inkscape-font-specification:'Baron Neue';fill:#337ab7;fill-opacity:1;stroke-width:0.52383327">Varasto</tspan></text>
  </g>
</svg>
