<?xml version="1.0" encoding="UTF-8"?>
<!-- Created with Inkscape (http://www.inkscape.org/) -->
<svg width="118.48mm" height="47.773mm" version="1.1" viewBox="0 0 118.48 47.773" xmlns="http://www.w3.org/2000/svg" xmlns:cc="http://creativecommons.org/ns#" xmlns:dc="http://purl.org/dc/elements/1.1/" xmlns:rdf="http://www.w3.org/1999/02/22-rdf-syntax-ns#">
 <metadata>
  <rdf:RDF>
   <cc:Work rdf:about="">
    <dc:format>image/svg+xml</dc:format>
    <dc:type rdf:resource="http://purl.org/dc/dcmitype/StillImage"/>
    <dc:title/>
   </cc:Work>
  </rdf:RDF>
 </metadata>
 <g transform="translate(-20.458 -98.12)">
  <g fill="none" stroke="#888">
   <g stroke-linejoin="bevel">
    <rect x="72.296" y="104.69" width="14.724" height="14.831" stroke-width=".49"/>
    <rect x="70.958" y="103.41" width="17.409" height="17.416" stroke-width=".57739"/>
    <circle cx="75.971" cy="110.01" r="1.3224" stroke-width=".45106"/>
   </g>
   <path d="m72.296 119.52 3.0403-5.0351 3.3075 5.0781" stroke-width=".565"/>
   <path d="m87.03 118.73-6.3811-7.3499-4.2095 4.744" stroke-width=".565"/>
  </g>
  <g fill="#888" stroke-width=".2" aria-label="Image not available">
   <path d="m71.213 132.61q0 0.0227-0.01137 0.0417t-0.0379 0.0303q-0.02653 0.0114-0.072 0.0189-0.04169 8e-3 -0.1099 8e-3 -0.06442 0-0.1099-8e-3 -0.04548-8e-3 -0.072-0.0189-0.02653-0.0114-0.0379-0.0303t-0.01137-0.0417v-4.7522q0-0.0227 0.01137-0.0417 0.01516-0.0189 0.04169-0.0303 0.03032-0.0114 0.072-0.019 0.04547-8e-3 0.10611-8e-3 0.06821 0 0.1099 8e-3 0.04547 8e-3 0.072 0.019 0.02653 0.0114 0.0379 0.0303 0.01137 0.019 0.01137 0.0417z" style="font-feature-settings:normal;font-variant-caps:normal;font-variant-ligatures:normal;font-variant-numeric:normal"/>
   <path d="m77.451 132.61q0 0.0227-0.01137 0.0417t-0.0379 0.0303q-0.02274 0.0114-0.06821 0.0189-0.04169 8e-3 -0.10611 8e-3 -0.06821 0-0.11369-8e-3 -0.04169-8e-3 -0.06821-0.0189-0.02653-0.0114-0.0379-0.0303-0.0076-0.0189-0.0076-0.0417v-2.1108q0-0.24253-0.04548-0.43959-0.04169-0.20085-0.13643-0.34107-0.09095-0.144-0.23496-0.21979-0.14022-0.0796-0.33348-0.0796-0.23875 0-0.48507 0.18569-0.24254 0.18569-0.53433 0.5457v2.4594q0 0.0227-0.01137 0.0417t-0.0379 0.0303q-0.02274 0.0114-0.06821 0.0189-0.04169 8e-3 -0.10611 8e-3 -0.06442 0-0.1099-8e-3 -0.04169-8e-3 -0.06821-0.0189-0.02653-0.0114-0.0379-0.0303-0.0076-0.0189-0.0076-0.0417v-2.1108q0-0.24253-0.04547-0.43959-0.04548-0.20085-0.14022-0.34107-0.09095-0.144-0.23496-0.21979-0.14022-0.0796-0.33348-0.0796-0.23874 0-0.48507 0.18569-0.24254 0.18569-0.53054 0.5457v2.4594q0 0.0227-0.01137 0.0417t-0.0379 0.0303q-0.02274 0.0114-0.06821 0.0189-0.04169 8e-3 -0.1099 8e-3 -0.06442 0-0.1099-8e-3 -0.04169-8e-3 -0.06821-0.0189-0.02653-0.0114-0.0379-0.0303-0.0076-0.0189-0.0076-0.0417v-3.4296q0-0.0227 0.0076-0.0417 0.01137-0.0189 0.0379-0.0303 0.02653-0.0152 0.06442-0.019 0.04169-8e-3 0.10611-8e-3 0.06442 0 0.10611 8e-3 0.04169 4e-3 0.06442 0.019 0.02274 0.0114 0.03032 0.0303 0.01137 0.0189 0.01137 0.0417v0.48507q0.29559-0.3297 0.56086-0.47749 0.26527-0.14779 0.52676-0.14779 0.21601 0 0.38275 0.0531 0.17053 0.0493 0.29938 0.144 0.12885 0.091 0.2198 0.2198 0.09095 0.12885 0.14779 0.28422 0.17811-0.19706 0.33349-0.32969 0.15916-0.13643 0.29938-0.21601 0.144-0.0834 0.27664-0.11748 0.13264-0.0379 0.26148-0.0379 0.32212 0 0.54191 0.11368 0.22359 0.11369 0.35622 0.30696 0.13643 0.19327 0.19327 0.45096 0.06063 0.2577 0.06063 0.54571z" style="font-feature-settings:normal;font-variant-caps:normal;font-variant-ligatures:normal;font-variant-numeric:normal"/>
   <path d="m81.104 132.61q0 0.0379-0.02653 0.0606-0.02274 0.0189-0.06442 0.0265-0.0379 0.0114-0.10611 0.0114-0.06442 0-0.1099-0.0114-0.04548-8e-3 -0.072-0.0265-0.02274-0.0227-0.02274-0.0606v-0.38275q-0.23117 0.25012-0.5116 0.38654-0.27664 0.13643-0.57602 0.13643-0.26906 0-0.48507-0.0682-0.21222-0.072-0.36001-0.20085-0.14779-0.13264-0.22738-0.31833-0.07958-0.18569-0.07958-0.41686 0-0.28422 0.11748-0.49265 0.11748-0.21221 0.33348-0.35243 0.21601-0.14021 0.51918-0.20843 0.30317-0.072 0.67455-0.072h0.5457v-0.29559q0-0.2198-0.04547-0.38654-0.04548-0.17053-0.1478-0.28422-0.10232-0.11369-0.26527-0.17053-0.16295-0.0568-0.39791-0.0568-0.22738 0-0.40928 0.0568-0.1819 0.053-0.31833 0.12127-0.13643 0.0682-0.22738 0.12505-0.08716 0.0531-0.12506 0.0531-0.02274 0-0.04169-8e-3t-0.03411-0.0265q-0.01137-0.0227-0.01895-0.053-0.0038-0.0341-0.0038-0.0796 0-0.0796 0.01137-0.12506 0.01137-0.0493 0.05684-0.0947 0.04926-0.0493 0.17053-0.11369 0.12127-0.0644 0.27664-0.11748 0.15916-0.0568 0.34106-0.091 0.1819-0.0341 0.3638-0.0341 0.35243 0 0.59497 0.0872 0.24254 0.0834 0.39033 0.24253 0.15158 0.15916 0.21601 0.39412 0.06442 0.23117 0.06442 0.52676zm-0.45096-1.6182h-0.62528q-0.27285 0-0.47749 0.0493t-0.34106 0.144q-0.13643 0.0947-0.20464 0.22738-0.06442 0.13263-0.06442 0.30317 0 0.29559 0.18569 0.4737 0.18948 0.17432 0.53054 0.17432 0.26906 0 0.50023-0.13643 0.23496-0.14021 0.49644-0.42822z" style="font-feature-settings:normal;font-variant-caps:normal;font-variant-ligatures:normal;font-variant-numeric:normal"/>
   <path d="m85.102 129.3q0 0.10611-0.03411 0.14779-0.03411 0.0417-0.08716 0.0417h-0.54191q0.15916 0.16295 0.2198 0.35622 0.06442 0.18948 0.06442 0.4017 0 0.2918-0.09474 0.51918-0.09095 0.22737-0.26148 0.38654-0.17053 0.15537-0.40549 0.23874-0.23496 0.0834-0.51918 0.0834-0.23117 0-0.43959-0.0644t-0.32591-0.15916q-0.07579 0.0758-0.12506 0.17432-0.04927 0.0985-0.04927 0.22737 0 0.14401 0.13643 0.24254 0.14022 0.0985 0.36001 0.10611l0.92845 0.0379q0.23496 8e-3 0.43959 0.0644 0.20843 0.0568 0.3638 0.17053 0.15537 0.1099 0.24632 0.27285t0.09095 0.38275q0 0.22738-0.09474 0.43581-0.09095 0.20842-0.28801 0.3638-0.19327 0.15916-0.49644 0.25011-0.30317 0.0947-0.72381 0.0947-0.4017 0-0.68592-0.072-0.28043-0.0682-0.46233-0.19327-0.17811-0.12127-0.26148-0.28801-0.07958-0.16674-0.07958-0.36001 0-0.13264 0.03032-0.25012t0.09095-0.22358q0.06442-0.10611 0.15537-0.20464 0.09474-0.0985 0.21601-0.20085-0.19327-0.0985-0.28422-0.23875-0.09095-0.14021-0.09095-0.29938 0-0.23495 0.09095-0.41306 0.09095-0.1819 0.2198-0.32591-0.1099-0.144-0.17053-0.31454-0.06063-0.17053-0.06063-0.40927 0-0.28801 0.09474-0.51539 0.09474-0.23117 0.26148-0.39033 0.17053-0.15916 0.40549-0.24253 0.23496-0.0872 0.51539-0.0872 0.1478 0 0.27664 0.0189 0.13264 0.0152 0.24253 0.0417h1.0118q0.06442 0 0.09095 0.0493 0.03032 0.0493 0.03032 0.14401zm-0.84508 0.95498q0-0.39033-0.21601-0.61013-0.21222-0.21979-0.60634-0.21979-0.20085 0-0.35243 0.0682t-0.25011 0.18569q-0.09853 0.11748-0.1478 0.27285-0.04926 0.15537-0.04926 0.3297 0 0.37896 0.21222 0.59875 0.21601 0.21601 0.60255 0.21601 0.20464 0 0.35622-0.0682 0.15537-0.0682 0.2539-0.1819 0.09853-0.11748 0.14779-0.26906 0.04927-0.15538 0.04927-0.32212zm0.36001 2.702q0-0.25012-0.20464-0.38275-0.20085-0.13264-0.54191-0.14401l-0.99667-0.0341q-0.13642 0.10611-0.22359 0.20085-0.08716 0.0947-0.14022 0.1819-0.04926 0.0909-0.06821 0.17432-0.01895 0.0872-0.01895 0.17432 0 0.28043 0.28043 0.42444 0.28422 0.144 0.78824 0.144 0.31833 0 0.53054-0.0644 0.21601-0.0606 0.34864-0.16296 0.13264-0.10231 0.18948-0.23495 0.05684-0.13264 0.05684-0.27664z" style="font-feature-settings:normal;font-variant-caps:normal;font-variant-ligatures:normal;font-variant-numeric:normal"/>
   <path d="m88.728 130.72q0 0.13643-0.072 0.18948-0.072 0.0493-0.14022 0.0493h-2.3382q0 0.31832 0.06063 0.57602 0.06442 0.25769 0.20843 0.44338 0.144 0.1819 0.37517 0.28043 0.23117 0.0985 0.56844 0.0985 0.23875 0 0.42823-0.0417t0.32591-0.0909q0.14022-0.0531 0.22738-0.0947 0.09095-0.0417 0.12885-0.0417 0.02274 0 0.04169 0.0114t0.03032 0.0379q0.01137 0.0227 0.01516 0.0606 0.0076 0.0379 0.0076 0.0947 0 0.0265-0.0038 0.053-0.0038 0.0227-0.01137 0.0455-0.0038 0.0189-0.01516 0.0379-0.01137 0.019-0.03032 0.0379t-0.11748 0.0682q-0.09853 0.0455-0.25769 0.0947-0.15916 0.0455-0.37138 0.0834-0.20843 0.0379-0.45096 0.0379-0.39791 0-0.70487-0.11748-0.30696-0.12127-0.51539-0.35243-0.20843-0.23496-0.31833-0.57981-0.10611-0.34486-0.10611-0.79961 0-0.4358 0.1099-0.78066 0.11369-0.34485 0.32212-0.5836 0.20843-0.24253 0.50023-0.36759 0.29559-0.12884 0.6556-0.12884 0.38654 0 0.65939 0.12884 0.27285 0.12885 0.44717 0.34865 0.17811 0.216 0.25769 0.50401 0.08337 0.28801 0.08337 0.60634zm-0.46612-0.13264q0.01137-0.5457-0.25011-0.85266-0.26148-0.30695-0.76171-0.30695-0.25769 0-0.45475 0.0985-0.19327 0.0948-0.3297 0.25391-0.13264 0.15916-0.20464 0.37138-0.072 0.20843-0.08337 0.4358z" style="font-feature-settings:normal;font-variant-caps:normal;font-variant-ligatures:normal;font-variant-numeric:normal"/>
   <path d="m63.239 140.75q0 0.0227-0.01137 0.0417-0.01137 0.0189-0.0379 0.0303-0.02274 0.0114-0.06821 0.019-0.04169 8e-3 -0.10611 8e-3 -0.06821 0-0.11369-8e-3 -0.04169-8e-3 -0.06821-0.019-0.02274-0.0114-0.03411-0.0303t-0.01137-0.0417v-2.035q0-0.31832-0.04926-0.51538-0.04926-0.20085-0.14779-0.34107-0.09853-0.144-0.2539-0.2198-0.15158-0.0796-0.35622-0.0796-0.26148 0-0.52296 0.18569t-0.54949 0.54571v2.4594q0 0.0227-0.01137 0.0417-0.01137 0.0189-0.0379 0.0303-0.02274 0.0114-0.06821 0.019-0.04169 8e-3 -0.1099 8e-3 -0.06442 0-0.1099-8e-3 -0.04169-8e-3 -0.06821-0.019-0.02653-0.0114-0.0379-0.0303-0.0076-0.0189-0.0076-0.0417v-3.4296q0-0.0227 0.0076-0.0417 0.01137-0.019 0.0379-0.0303 0.02653-0.0152 0.06442-0.0189 0.04168-8e-3 0.10611-8e-3 0.06442 0 0.10611 8e-3 0.04169 4e-3 0.06442 0.0189 0.02274 0.0114 0.03032 0.0303 0.01137 0.0189 0.01137 0.0417v0.48507q0.29559-0.3297 0.57981-0.47749 0.28422-0.1478 0.56465-0.1478 0.33728 0 0.56844 0.11369t0.37138 0.30696q0.144 0.19327 0.20464 0.45096 0.06442 0.2577 0.06442 0.6215z" style="font-feature-settings:normal;font-variant-caps:normal;font-variant-ligatures:normal;font-variant-numeric:normal"/>
   <path d="m67.526 139q0 0.40928-0.10611 0.75413-0.10611 0.34486-0.31833 0.59876-0.20843 0.25391-0.52297 0.39791-0.31454 0.14022-0.73139 0.14022-0.4017 0-0.70487-0.12506-0.29938-0.12885-0.50402-0.3638-0.20085-0.23875-0.30317-0.57602-0.09853-0.33728-0.09853-0.76171 0-0.40928 0.10232-0.75413 0.10611-0.34486 0.31454-0.59497 0.21222-0.25391 0.52676-0.39412 0.31454-0.14022 0.73518-0.14022 0.4017 0 0.70108 0.12506 0.30317 0.12506 0.50402 0.3638 0.20085 0.23496 0.30317 0.57223 0.10232 0.33728 0.10232 0.75792zm-0.47749 0.0417q0-0.2918-0.05684-0.55707-0.05684-0.26528-0.18948-0.46612-0.13264-0.20464-0.35622-0.32212-0.22359-0.12127-0.55707-0.12127-0.30696 0-0.53054 0.1099-0.22359 0.1099-0.36759 0.30696-0.14022 0.19327-0.20843 0.45854-0.06821 0.26527-0.06821 0.57223 0 0.29559 0.05684 0.56465 0.05684 0.26527 0.18948 0.46612 0.13264 0.20085 0.35622 0.31833 0.22359 0.11748 0.55707 0.11748 0.30696 0 0.53054-0.1099 0.22359-0.1099 0.3638-0.30317 0.144-0.19327 0.21222-0.45854 0.06821-0.26527 0.06821-0.57602z" style="font-feature-settings:normal;font-variant-caps:normal;font-variant-ligatures:normal;font-variant-numeric:normal"/>
   <path d="m70.19 140.55q0 0.0796-0.01516 0.12885-0.01137 0.0493-0.04169 0.0796-0.02653 0.0265-0.08337 0.0531-0.05306 0.0227-0.12506 0.0379-0.072 0.019-0.15158 0.0265-0.07958 0.0114-0.15537 0.0114-0.2539 0-0.43202-0.0682-0.17811-0.0682-0.2918-0.20463-0.11369-0.14022-0.16674-0.35244-0.04926-0.21222-0.04926-0.50023v-2.1335h-0.5116q-0.05305 0-0.08337-0.0455-0.03032-0.0493-0.03032-0.144 0-0.0493 0.0076-0.0834 0.0076-0.0379 0.02274-0.0606 0.01516-0.0265 0.03411-0.0379 0.02274-0.0114 0.04926-0.0114h0.5116v-0.8413q0-0.0227 0.0076-0.0417 0.01137-0.0189 0.0379-0.0303 0.02653-0.0152 0.06821-0.019 0.04547-8e-3 0.1099-8e-3 0.06821 0 0.1099 8e-3 0.04547 4e-3 0.06821 0.019 0.02653 0.0114 0.0379 0.0303t0.01137 0.0417v0.8413h0.9474q0.02653 0 0.04547 0.0114 0.02274 0.0114 0.0379 0.0379 0.01516 0.0227 0.02274 0.0606 0.0076 0.0341 0.0076 0.0834 0 0.0947-0.03411 0.144-0.03032 0.0455-0.07958 0.0455h-0.9474v2.0729q0 0.39033 0.1099 0.59497 0.11369 0.20464 0.40928 0.20464 0.09095 0 0.16295-0.0189 0.07579-0.019 0.13264-0.0417 0.05684-0.0227 0.09474-0.0417 0.04169-0.019 0.072-0.019 0.01895 0 0.03411 8e-3t0.02274 0.0303q0.01137 0.0189 0.01516 0.0531 0.0076 0.0303 0.0076 0.0796z" style="font-feature-settings:normal;font-variant-caps:normal;font-variant-ligatures:normal;font-variant-numeric:normal"/>
   <path d="m75.245 140.75q0 0.0379-0.02653 0.0606-0.02274 0.019-0.06442 0.0265-0.0379 0.0114-0.10611 0.0114-0.06442 0-0.1099-0.0114-0.04548-8e-3 -0.072-0.0265-0.02274-0.0227-0.02274-0.0606v-0.38275q-0.23116 0.25011-0.5116 0.38654-0.27664 0.13643-0.57602 0.13643-0.26906 0-0.48507-0.0682-0.21222-0.072-0.36001-0.20085-0.1478-0.13263-0.22738-0.31832-0.07958-0.18569-0.07958-0.41686 0-0.28422 0.11748-0.49265 0.11748-0.21222 0.33348-0.35243 0.21601-0.14022 0.51918-0.20843 0.30317-0.072 0.67455-0.072h0.5457v-0.29559q0-0.2198-0.04548-0.38654-0.04548-0.17053-0.14779-0.28422-0.10232-0.11369-0.26527-0.17053-0.16295-0.0568-0.39791-0.0568-0.22738 0-0.40928 0.0568-0.1819 0.0531-0.31833 0.12126-0.13643 0.0682-0.22738 0.12506-0.08716 0.0531-0.12506 0.0531-0.02274 0-0.04169-8e-3t-0.03411-0.0265q-0.01137-0.0227-0.01895-0.0531-0.0038-0.0341-0.0038-0.0796 0-0.0796 0.01137-0.12505 0.01137-0.0493 0.05685-0.0947 0.04926-0.0493 0.17053-0.11369 0.12127-0.0644 0.27664-0.11748 0.15916-0.0568 0.34106-0.091 0.1819-0.0341 0.3638-0.0341 0.35243 0 0.59497 0.0872 0.24253 0.0834 0.39033 0.24254 0.15158 0.15916 0.21601 0.39412 0.06442 0.23116 0.06442 0.52675zm-0.45096-1.6182h-0.62528q-0.27285 0-0.47749 0.0493-0.20464 0.0493-0.34106 0.14401-0.13643 0.0947-0.20464 0.22738-0.06442 0.13263-0.06442 0.30316 0 0.29559 0.18569 0.4737 0.18948 0.17433 0.53054 0.17433 0.26906 0 0.50023-0.13643 0.23496-0.14021 0.49644-0.42822z" style="font-feature-settings:normal;font-variant-caps:normal;font-variant-ligatures:normal;font-variant-numeric:normal"/>
   <path d="m78.985 137.32q0 0.0114-0.0038 0.0265 0 0.0114-0.0038 0.0227 0 0.0114-0.0038 0.0265-0.0038 0.0114-0.0076 0.0227l-1.243 3.3386q-0.01137 0.0303-0.03411 0.0493-0.02274 0.0189-0.05684 0.0303-0.03411 0.0114-0.08337 0.0152-0.04548 4e-3 -0.1099 4e-3 -0.06442 0-0.11369-8e-3 -0.04926-4e-3 -0.08337-0.0152-0.03411-0.0114-0.05684-0.0303-0.02274-0.019-0.03411-0.0455l-1.243-3.3386q-0.01137-0.0303-0.01895-0.0493-0.0038-0.0189-0.0076-0.0303 0-0.0114 0-0.0189 0-0.0265 0.01137-0.0455 0.01137-0.0189 0.03411-0.0265 0.02653-0.0114 0.06821-0.0152 0.04169-4e-3 0.10232-4e-3 0.08337 0 0.13264 8e-3 0.04926 4e-3 0.07579 0.0152 0.03032 0.0114 0.04169 0.0303 0.01516 0.0189 0.02653 0.0455l1.0725 2.9938 0.0076 0.0189 0.0076-0.0189 1.0535-2.9938q0.0076-0.0265 0.02274-0.0455 0.01516-0.0189 0.04169-0.0303 0.03032-0.0114 0.07579-0.0152 0.04926-8e-3 0.12506-8e-3 0.06063 0 0.09853 4e-3 0.04169 4e-3 0.06442 0.0152 0.02274 0.0114 0.03032 0.0303 0.01137 0.0152 0.01137 0.0417z" style="font-feature-settings:normal;font-variant-caps:normal;font-variant-ligatures:normal;font-variant-numeric:normal"/>
   <path d="m82.066 140.75q0 0.0379-0.02653 0.0606-0.02274 0.019-0.06442 0.0265-0.0379 0.0114-0.10611 0.0114-0.06442 0-0.1099-0.0114-0.04548-8e-3 -0.072-0.0265-0.02274-0.0227-0.02274-0.0606v-0.38275q-0.23117 0.25011-0.5116 0.38654-0.27664 0.13643-0.57602 0.13643-0.26906 0-0.48507-0.0682-0.21222-0.072-0.36001-0.20085-0.1478-0.13263-0.22738-0.31832-0.07958-0.18569-0.07958-0.41686 0-0.28422 0.11748-0.49265 0.11748-0.21222 0.33348-0.35243 0.21601-0.14022 0.51918-0.20843 0.30317-0.072 0.67455-0.072h0.5457v-0.29559q0-0.2198-0.04548-0.38654-0.04547-0.17053-0.14779-0.28422-0.10232-0.11369-0.26527-0.17053-0.16295-0.0568-0.39791-0.0568-0.22738 0-0.40928 0.0568-0.1819 0.0531-0.31833 0.12126-0.13643 0.0682-0.22738 0.12506-0.08716 0.0531-0.12506 0.0531-0.02274 0-0.04169-8e-3t-0.03411-0.0265q-0.01137-0.0227-0.01895-0.0531-0.0038-0.0341-0.0038-0.0796 0-0.0796 0.01137-0.12505 0.01137-0.0493 0.05684-0.0947 0.04927-0.0493 0.17053-0.11369 0.12127-0.0644 0.27664-0.11748 0.15916-0.0568 0.34106-0.091 0.1819-0.0341 0.3638-0.0341 0.35243 0 0.59497 0.0872 0.24253 0.0834 0.39033 0.24254 0.15158 0.15916 0.21601 0.39412 0.06442 0.23116 0.06442 0.52675zm-0.45096-1.6182h-0.62528q-0.27285 0-0.47749 0.0493-0.20464 0.0493-0.34106 0.14401-0.13643 0.0947-0.20464 0.22738-0.06442 0.13263-0.06442 0.30316 0 0.29559 0.18569 0.4737 0.18948 0.17433 0.53054 0.17433 0.26906 0 0.50023-0.13643 0.23496-0.14021 0.49644-0.42822z" style="font-feature-settings:normal;font-variant-caps:normal;font-variant-ligatures:normal;font-variant-numeric:normal"/>
   <path d="m83.768 140.75q0 0.0227-0.01137 0.0417-0.01137 0.0189-0.0379 0.0303-0.02274 0.0114-0.06821 0.019-0.04169 8e-3 -0.1099 8e-3 -0.06442 0-0.1099-8e-3 -0.04169-8e-3 -0.06821-0.019-0.02653-0.0114-0.0379-0.0303-0.0076-0.0189-0.0076-0.0417v-3.4296q0-0.0227 0.0076-0.0417 0.01137-0.019 0.0379-0.0303 0.02653-0.0152 0.06821-0.0189 0.04548-8e-3 0.1099-8e-3 0.06821 0 0.1099 8e-3 0.04548 4e-3 0.06821 0.0189 0.02653 0.0114 0.0379 0.0303t0.01137 0.0417zm0.06821-4.5854q0 0.1819-0.06442 0.24632-0.06442 0.0644-0.23496 0.0644-0.16674 0-0.23117-0.0606-0.06063-0.0644-0.06063-0.24632 0-0.1819 0.06442-0.24633 0.06442-0.0644 0.23496-0.0644 0.16674 0 0.22738 0.0644 0.06442 0.0606 0.06442 0.24254z" style="font-feature-settings:normal;font-variant-caps:normal;font-variant-ligatures:normal;font-variant-numeric:normal"/>
   <path d="m85.481 140.75q0 0.0227-0.01137 0.0417-0.01137 0.0189-0.0379 0.0303-0.02274 0.0114-0.06821 0.019-0.04169 8e-3 -0.1099 8e-3 -0.06442 0-0.1099-8e-3 -0.04169-8e-3 -0.06821-0.019-0.02653-0.0114-0.0379-0.0303-0.0076-0.0189-0.0076-0.0417v-5.1084q0-0.0227 0.0076-0.0417 0.01137-0.019 0.0379-0.0303 0.02653-0.0152 0.06821-0.0189 0.04548-8e-3 0.1099-8e-3 0.06821 0 0.1099 8e-3 0.04547 4e-3 0.06821 0.0189 0.02653 0.0114 0.0379 0.0303t0.01137 0.0417z" style="font-feature-settings:normal;font-variant-caps:normal;font-variant-ligatures:normal;font-variant-numeric:normal"/>
   <path d="m89.145 140.75q0 0.0379-0.02653 0.0606-0.02274 0.019-0.06442 0.0265-0.0379 0.0114-0.10611 0.0114-0.06442 0-0.1099-0.0114-0.04547-8e-3 -0.072-0.0265-0.02274-0.0227-0.02274-0.0606v-0.38275q-0.23117 0.25011-0.5116 0.38654-0.27664 0.13643-0.57602 0.13643-0.26906 0-0.48507-0.0682-0.21222-0.072-0.36001-0.20085-0.14779-0.13263-0.22738-0.31832-0.07958-0.18569-0.07958-0.41686 0-0.28422 0.11748-0.49265 0.11748-0.21222 0.33348-0.35243 0.21601-0.14022 0.51918-0.20843 0.30317-0.072 0.67455-0.072h0.5457v-0.29559q0-0.2198-0.04548-0.38654-0.04547-0.17053-0.1478-0.28422-0.10232-0.11369-0.26527-0.17053-0.16295-0.0568-0.39791-0.0568-0.22738 0-0.40928 0.0568-0.1819 0.0531-0.31833 0.12126-0.13643 0.0682-0.22738 0.12506-0.08716 0.0531-0.12506 0.0531-0.02274 0-0.04169-8e-3t-0.03411-0.0265q-0.01137-0.0227-0.01895-0.0531-0.0038-0.0341-0.0038-0.0796 0-0.0796 0.01137-0.12505 0.01137-0.0493 0.05684-0.0947 0.04927-0.0493 0.17053-0.11369 0.12127-0.0644 0.27664-0.11748 0.15916-0.0568 0.34106-0.091 0.1819-0.0341 0.3638-0.0341 0.35243 0 0.59497 0.0872 0.24254 0.0834 0.39033 0.24254 0.15158 0.15916 0.21601 0.39412 0.06442 0.23116 0.06442 0.52675zm-0.45096-1.6182h-0.62528q-0.27285 0-0.47749 0.0493t-0.34106 0.14401q-0.13643 0.0947-0.20464 0.22738-0.06442 0.13263-0.06442 0.30316 0 0.29559 0.18569 0.4737 0.18948 0.17433 0.53054 0.17433 0.26906 0 0.50023-0.13643 0.23496-0.14021 0.49644-0.42822z" style="font-feature-settings:normal;font-variant-caps:normal;font-variant-ligatures:normal;font-variant-numeric:normal"/>
   <path d="m93.39 138.99q0 0.4396-0.09474 0.79203-0.09474 0.34865-0.28422 0.59497-0.18569 0.24632-0.46233 0.37896-0.27285 0.13264-0.62907 0.13264-0.15916 0-0.29559-0.0341-0.13264-0.0303-0.26148-0.10232-0.12885-0.072-0.26527-0.1819-0.13264-0.1099-0.28801-0.26527v0.44338q0 0.0265-0.01137 0.0455-0.01137 0.0189-0.0379 0.0303t-0.06442 0.0152q-0.0379 8e-3 -0.09474 8e-3t-0.09853-8e-3q-0.0379-4e-3 -0.06442-0.0152-0.02274-0.0114-0.03411-0.0303-0.0076-0.019-0.0076-0.0455v-5.1084q0-0.0227 0.0076-0.0417 0.01137-0.019 0.0379-0.0303 0.02653-0.0152 0.06821-0.0189 0.04547-8e-3 0.1099-8e-3 0.06821 0 0.1099 8e-3 0.04547 4e-3 0.06821 0.0189 0.02653 0.0114 0.0379 0.0303t0.01137 0.0417v2.1411q0.16295-0.17053 0.31075-0.28422 0.1478-0.11748 0.28801-0.18569 0.14022-0.072 0.27664-0.10232 0.14022-0.0303 0.28801-0.0303 0.37138 0 0.63286 0.14401 0.26527 0.144 0.42823 0.39033 0.16674 0.24632 0.24254 0.57602 0.07579 0.32969 0.07579 0.70107zm-0.4737 0.072q0-0.28801-0.04547-0.55708-0.04548-0.26906-0.15537-0.47749-0.1099-0.20842-0.2918-0.33348-0.1819-0.12885-0.45475-0.12885-0.13264 0-0.26527 0.0379-0.12885 0.0379-0.26527 0.12506-0.13643 0.0872-0.28422 0.22737-0.144 0.13643-0.30696 0.34107v1.4931q0.28422 0.34485 0.5457 0.53055 0.26527 0.1819 0.54949 0.1819 0.26148 0 0.44717-0.12506 0.18569-0.12885 0.30317-0.33349 0.11748-0.20463 0.17053-0.46233 0.05305-0.25769 0.05305-0.51917z" style="font-feature-settings:normal;font-variant-caps:normal;font-variant-ligatures:normal;font-variant-numeric:normal"/>
   <path d="m94.879 140.75q0 0.0227-0.01137 0.0417-0.01137 0.0189-0.0379 0.0303-0.02274 0.0114-0.06821 0.019-0.04169 8e-3 -0.1099 8e-3 -0.06442 0-0.1099-8e-3 -0.04169-8e-3 -0.06821-0.019-0.02653-0.0114-0.0379-0.0303-0.0076-0.0189-0.0076-0.0417v-5.1084q0-0.0227 0.0076-0.0417 0.01137-0.019 0.0379-0.0303 0.02653-0.0152 0.06821-0.0189 0.04548-8e-3 0.1099-8e-3 0.06821 0 0.1099 8e-3 0.04548 4e-3 0.06821 0.0189 0.02653 0.0114 0.0379 0.0303t0.01137 0.0417z" style="font-feature-settings:normal;font-variant-caps:normal;font-variant-ligatures:normal;font-variant-numeric:normal"/>
   <path d="m98.938 138.86q0 0.13642-0.072 0.18948-0.072 0.0493-0.14022 0.0493h-2.3382q0 0.31833 0.06063 0.57602 0.06442 0.2577 0.20843 0.44339 0.144 0.1819 0.37517 0.28043 0.23117 0.0985 0.56844 0.0985 0.23875 0 0.42823-0.0417t0.32591-0.091q0.14022-0.053 0.22738-0.0947 0.09095-0.0417 0.12885-0.0417 0.02274 0 0.04169 0.0114t0.03032 0.0379q0.01137 0.0227 0.01516 0.0606 0.0076 0.0379 0.0076 0.0947 0 0.0265-0.0038 0.0531-0.0038 0.0227-0.01137 0.0455-0.0038 0.019-0.01516 0.0379-0.01137 0.0189-0.03032 0.0379-0.01895 0.0189-0.11748 0.0682-0.09853 0.0455-0.25769 0.0947-0.15916 0.0455-0.37138 0.0834-0.20843 0.0379-0.45096 0.0379-0.39791 0-0.70487-0.11748-0.30696-0.12127-0.51539-0.35243-0.20843-0.23496-0.31833-0.57981-0.10611-0.34486-0.10611-0.79961 0-0.43581 0.1099-0.78066 0.11369-0.34485 0.32212-0.5836 0.20843-0.24253 0.50023-0.36759 0.29559-0.12885 0.6556-0.12885 0.38654 0 0.65939 0.12885 0.27285 0.12885 0.44717 0.34864 0.17811 0.21601 0.25769 0.50402 0.08337 0.28801 0.08337 0.60634zm-0.46612-0.13264q0.01137-0.5457-0.25011-0.85266-0.26148-0.30696-0.76171-0.30696-0.25769 0-0.45475 0.0985-0.19327 0.0947-0.3297 0.25391-0.13264 0.15916-0.20464 0.37138-0.072 0.20843-0.08337 0.4358z" style="font-feature-settings:normal;font-variant-caps:normal;font-variant-ligatures:normal;font-variant-numeric:normal"/>
  </g>
 </g>
</svg>
