<svg xmlns="http://www.w3.org/2000/svg" width="591.04" height="163.84" viewBox="0 0 156.379 43.349">
  <g fill="#337ab7">
    <path d="M142.4 25.604a1.218 1.218 0 000-2.435 1.218 1.218 0 000 2.435zM111.586 25.822l1.778-1.778c.3-.302.3-.793 0-1.093a.771.771 0 00-.546-.224.77.77 0 00-.545.224l-1.779 1.779a.767.767 0 000 1.092.79.79 0 001.092 0zM117.658 25.822l1.777-1.778c.3-.302.3-.793 0-1.093a.772.772 0 00-.546-.224.77.77 0 00-.546.224l-1.777 1.779a.767.767 0 00-.001 1.092.79.79 0 001.093 0zM142.4 35.673a1.217 1.217 0 000-2.433 1.218 1.218 0 000 2.432zM111.586 35.892l1.778-1.78a.773.773 0 00-1.092-1.091l-1.778 1.779a.77.77 0 000 1.09c.294.297.8.292 1.092.002zM117.657 35.892l1.779-1.78c.3-.299.3-.79-.001-1.091a.765.765 0 00-.546-.225c-.206 0-.4.08-.546.225l-1.777 1.779a.77.77 0 00-.001 1.09c.293.297.8.292 1.092.002zM142.53 15.402c.67 0 1.216-.546 1.216-1.216 0-.67-.546-1.216-1.216-1.216a1.217 1.217 0 000 2.432zM111.716 15.623l1.778-1.78a.764.764 0 000-1.09.773.773 0 00-1.092-.003l-1.778 1.78c-.3.3-.3.791 0 1.093.29.29.8.29 1.092 0zM117.788 15.622l1.777-1.78a.764.764 0 00.227-.545.76.76 0 00-.226-.543.77.77 0 00-1.092-.003l-1.778 1.78c-.302.3-.301.79 0 1.092a.792.792 0 001.092-.001z"/>
    <path d="M148.227 9.04l-5.137-5.417a.786.786 0 00-.585-.27h-30.863a.775.775 0 00-.576.26l-5.148 5.426a2.015 2.015 0 00-.548 1.375v27.683c0 1.121.91 2.033 2.028 2.033h39.348a2.04 2.04 0 002.023-1.87l.006-.086v-27.76a2 2 0 00-.548-1.375zm-39.57-.658l3.317-3.484h30.198l3.322 3.484-36.842.001zm38.575 30.2h-40.318l-.002-8.513h40.32zm0-10.06h-40.32V19.99h40.32zm0-10.077h-40.318l-.002-8.516h40.32z"/>
  </g>
  <g aria-label="Varasto" style="line-height:1.25" font-weight="400" font-size="20.953" font-family="Baron Neue" letter-spacing="0" word-spacing="0" fill="#337ab7" stroke-width=".524">
    <path d="M7.117 14.2L12.97 29.51 18.804 14.2zm3.596 2.437h4.495l-2.237 6.257zM27.808 28.9h2.634l-5.854-15.12-5.833 15.12h2.634l.628-1.701h5.143zm-3.22-8.925l1.777 5.103h-3.554zM39.299 28.9h2.697l-2.99-6.51c1.318-.483 2.823-1.533 2.823-3.905 0-4.284-4.893-4.284-4.893-4.284h-4.871V28.9h2.446v-6.132h1.986zm-4.788-12.242h2.425s2.447 0 2.447 1.827c0 1.847-2.447 1.847-2.447 1.847h-2.425zM52.024 28.9h2.634l-5.854-15.12-5.833 15.12h2.634l.627-1.701h5.144zm-3.22-8.925l1.777 5.103h-3.554zM60.358 29.11c2.362 0 4.558-1.512 4.558-4.326 0-1.743-.837-3.234-2.384-3.948-1.045-.483-2.07-.483-2.174-.483-1.088 0-2.133-.65-2.133-1.868 0-1.365.983-2.037 2.133-2.037 1.108 0 2.049.546 2.09 1.764h2.426c-.042-2.5-1.986-4.221-4.516-4.221-2.363 0-4.58 1.7-4.58 4.494 0 1.742.858 3.044 2.384 3.758 1.067.483 2.07.483 2.196.483.982.042 2.132.82 2.132 2.058 0 1.155-1.003 1.869-2.132 1.869-1.088 0-2.091-.609-2.133-1.827H55.78c.042 2.75 2.049 4.22 4.579 4.284zM74.993 14.2H66.42v2.248h3.074V28.9h2.425V16.448h3.074zM83.654 14.012c-9.638 0-9.66 15.077 0 15.077 9.618 0 9.597-15.077 0-15.077zm0 12.704c-6.335 0-6.314-10.31 0-10.31 6.335 0 6.335 10.31 0 10.31z" style="-inkscape-font-specification:'Baron Neue'"/>
  </g>
</svg>
