<svg xmlns="http://www.w3.org/2000/svg" xmlns:xlink="http://www.w3.org/1999/xlink" version="1.1" x="0px" y="0px" viewBox="0 0 512 512" enable-background="new 0 0 512 512" xml:space="preserve"><g><path fill="#ffffff" d="M436.798,301.563c7.906,0,14.328-6.453,14.328-14.375c0-7.906-6.422-14.345-14.328-14.345s-14.344,6.438-14.344,14.345   C422.454,295.108,428.892,301.563,436.798,301.563z"></path><path fill="#ffffff" d="M73.329,304.125l20.969-20.97c3.547-3.562,3.547-9.344,0-12.891c-1.719-1.703-4.008-2.641-6.445-2.641   c-2.43,0-4.711,0.938-6.43,2.641l-20.977,20.984c-1.727,1.719-2.68,4.016-2.68,6.438c0,2.438,0.953,4.719,2.672,6.438   C63.907,307.594,69.892,307.563,73.329,304.125z"></path><path fill="#ffffff" d="M144.946,304.125l20.969-20.97c3.539-3.562,3.539-9.344,0-12.891c-1.719-1.703-4.016-2.641-6.445-2.641   c-2.429,0-4.719,0.938-6.438,2.641l-20.969,20.984c-1.727,1.719-2.68,4.016-2.68,6.438c0,2.438,0.953,4.719,2.672,6.438   C135.517,307.594,141.509,307.563,144.946,304.125z"></path><path fill="#ffffff" d="M436.798,420.313c7.906,0,14.328-6.438,14.328-14.345c0-7.905-6.422-14.344-14.328-14.344s-14.344,6.438-14.344,14.344   C422.454,413.875,428.892,420.313,436.798,420.313z"></path><path fill="#ffffff" d="M73.321,422.891l20.977-20.983c3.547-3.531,3.547-9.312-0.008-12.875c-1.711-1.719-4-2.656-6.438-2.656   c-2.43,0-4.711,0.938-6.43,2.656l-20.977,20.983c-1.727,1.734-2.68,4.017-2.68,6.438s0.953,4.703,2.672,6.422   C63.907,426.375,69.884,426.313,73.321,422.891z"></path><path fill="#ffffff" d="M144.939,422.891l20.977-20.983c3.539-3.531,3.539-9.312-0.008-12.875c-1.711-1.719-4.008-2.656-6.438-2.656   c-2.43,0-4.719,0.938-6.438,2.656l-20.969,20.983c-1.727,1.734-2.68,4.017-2.68,6.438s0.953,4.703,2.672,6.422   C135.517,426.375,141.501,426.313,144.939,422.891z"></path><path fill="#ffffff" d="M438.329,181.234c7.906,0,14.344-6.438,14.344-14.344c0-7.906-6.438-14.344-14.344-14.344s-14.328,6.438-14.328,14.344   C424.001,174.796,430.423,181.234,438.329,181.234z"></path><path fill="#ffffff" d="M74.853,183.844l20.977-21c1.727-1.719,2.68-4,2.68-6.438c0-2.422-0.953-4.703-2.672-6.406   c-1.727-1.75-4.008-2.688-6.438-2.688c-2.438,0-4.719,0.953-6.445,2.656l-20.977,20.984c-3.539,3.531-3.539,9.328,0.008,12.891   C65.407,187.25,71.423,187.25,74.853,183.844z"></path><path fill="#ffffff" d="M146.478,183.828l20.969-20.984c1.727-1.719,2.672-4,2.672-6.438c0-2.422-0.945-4.703-2.664-6.406   c-1.734-1.75-4.008-2.688-6.438-2.688c-2.43,0-4.719,0.938-6.445,2.656l-20.977,20.984c-3.555,3.547-3.547,9.328,0.008,12.891   C137.024,187.25,143.024,187.281,146.478,183.828z"></path><path fill="#ffffff" d="M505.532,106.188l-60.595-63.875c-1.858-2.062-4.327-3.188-6.905-3.188H73.985c-2.578,0-5.055,1.125-6.789,3.062   l-60.727,64C2.297,110.718,0,116.375,0,122.406v326.5c0,13.219,10.727,23.969,23.922,23.969h464.141   c12.406,0,22.875-9.688,23.859-22.047l0.078-1.017V122.406C512.001,116.297,509.673,110.625,505.532,106.188z M38.774,98.438   l39.125-41.094H434.11l39.188,41.094L38.712,98.453L38.774,98.438z M493.798,454.625H18.212l-0.023-100.406h475.609V454.625   L493.798,454.625z M493.798,335.983H18.189V235.328h475.609V335.983L493.798,335.983z M493.798,217.125H18.212l-0.023-100.438   h475.609V217.125L493.798,217.125z"></path></g></svg>